<svg width="88" height="71" viewBox="0 0 88 71" fill="none" xmlns="http://www.w3.org/2000/svg">
<path d="M21.47 13.0908L25.3981 17.0188H62.5748L66.5029 13.0908H84.0367L87.9729 9.16271L80.1168 0H58.6468L50.7853 9.16271H37.1795L29.3234 0H7.8615L0 9.16271L3.92804 13.0908H21.47ZM8.47144 1.33917H28.708L36.1629 10.0302L36.5641 10.4965H51.4088L51.81 10.0302L59.2649 1.33374H79.5014L86.1485 9.08952L83.4946 11.7543H65.9499L65.5568 12.1447L62.0327 15.6688H25.9511L22.427 12.1447L22.0339 11.7543H4.48106L1.8217 9.09494L8.47144 1.33917Z" fill="#7F5CFF"/>
<path d="M66.5029 56.928L62.5748 53H25.3981L21.47 56.928H3.92804L0 60.8561L7.8615 70.0188H29.3315L37.193 60.8561H50.807L58.6685 70.0188H80.1385L88 60.8561L84.0367 56.928H66.5029ZM79.5014 68.6796H59.2649L51.81 59.9832L51.4088 59.5169H36.5641L36.1629 59.9832L28.708 68.6796H8.47144L1.8217 60.9238L4.48105 58.2672H22.023L22.4161 57.8741L25.9402 54.35H62.0218L65.5459 57.8741L65.939 58.2672H83.4945L86.1512 60.9238L79.5014 68.6796Z" fill="#7F5CFF"/>
</svg>
